<svg xmlns="http://www.w3.org/2000/svg" viewBox="0 0 100 100">
  <!-- clouds at base -->
  <circle cx="14" cy="72" r="10" fill="white"/>
  <circle cx="22" cy="68" r="10" fill="white"/>
  <circle cx="86" cy="72" r="10" fill="white"/>
  <circle cx="78" cy="68" r="10" fill="white"/>
  <!-- rainbow arcs outer to inner -->
  <path d="M8 72 A44 44 0 0 1 92 72" fill="none" stroke="#f87171" stroke-width="6"/>
  <path d="M13 72 A39 39 0 0 1 87 72" fill="none" stroke="#f59e0b" stroke-width="6"/>
  <path d="M18 72 A34 34 0 0 1 82 72" fill="none" stroke="#fde68a" stroke-width="6"/>
  <path d="M23 72 A29 29 0 0 1 77 72" fill="none" stroke="#34d399" stroke-width="6"/>
  <path d="M28 72 A24 24 0 0 1 72 72" fill="none" stroke="#60a5fa" stroke-width="6"/>
  <path d="M33 72 A19 19 0 0 1 67 72" fill="none" stroke="#a78bfa" stroke-width="6"/>
</svg>
